<svg width="24" height="24" viewBox="0 0 24 24" fill="none" xmlns="http://www.w3.org/2000/svg">
<path d="M20.5866 5.89464C17.7927 3.80424 15.1163 3.8628 15.1163 3.8628L14.8427 4.17528C18.164 5.17176 19.7075 6.63696 19.7075 6.63696C14.9557 4.02072 8.9029 4.03944 3.96034 6.63696C3.96034 6.63696 5.56234 5.09352 9.07906 4.09704L8.8837 3.86256C8.8837 3.86256 6.22666 3.804 3.41338 5.8944C3.41338 5.8944 0.600098 10.9546 0.600098 17.1869C0.600098 17.1869 2.24122 20.0002 6.55906 20.137C6.55906 20.137 7.28194 19.2773 7.86802 18.535C5.38666 17.7926 4.44898 16.2492 4.44898 16.2492C6.00778 17.2246 7.5841 17.8351 9.54826 18.2225C12.7441 18.8803 16.7192 18.204 19.688 16.2492C19.688 16.2492 18.7112 17.8318 16.1519 18.5546C16.7379 19.2775 17.4414 20.1175 17.4414 20.1175C21.7587 19.981 23.3999 17.1677 23.3999 17.1871C23.3999 10.9548 20.5866 5.89464 20.5866 5.89464ZM8.35618 15.3703C7.26202 15.3703 6.36346 14.413 6.36346 13.2211C6.44338 10.367 10.2891 10.3759 10.3491 13.2211C10.3489 14.413 9.46978 15.3703 8.35618 15.3703ZM15.4873 15.3703C14.3931 15.3703 13.4946 14.413 13.4946 13.2211C13.5824 10.3726 17.3802 10.3714 17.4803 13.2211C17.48 14.413 16.6009 15.3703 15.4873 15.3703Z" fill="white"/>
</svg>
